# xmcd
#
# Track frame offsets:
#	150
#	12305
#	26437
#	40274
#	52126
#	64197
#	78613
#	93210
#	106019
#	121480
#
# Disc length: 1820
#
# Revision: 3
# Processed by: cddbd v1.5.1PL0 Copyright (c) Steve Scherf et al.
# Submitted via: audiograbber 1.82.02
# Normalized: r1:DSETVAR1,TSWAP
#
DISCID=7b071a0a
DTITLE=Various Artist - Blues Hits Disc 1
DYEAR=1997
DGENRE=Blues
TTITLE0=Harlem Fats - Oh Red
TTITLE1=Jimmy Rushing and Count Basie - Good Morning Blues
TTITLE2=Sonny Boy Williamson - Good Morning School Girl
TTITLE3=Peetie Wheatstraw - Shack Bully Stump
TTITLE4=Big Joe Turner and Pete Johnson - Goin' Away Blues
TTITLE5=Billie Holiday - Fine and Mellow
TTITLE6=Lonnie Johnson - The Loveless Blues
TTITLE7=Louis Armstrong - 2/19 Blues
TTITLE8=Billy Eckstine and Earl Harris - Jelly Jelly
TTITLE9=Lil Green - Romance In The Dark
EXTD=
EXTT0=
EXTT1=
EXTT2=
EXTT3=
EXTT4=
EXTT5=
EXTT6=
EXTT7=
EXTT8=
EXTT9=
PLAYORDER=
